<svg width="110" height="39" viewBox="0 0 110 39" fill="none" xmlns="http://www.w3.org/2000/svg">
<path d="M42.4998 12.1842C41.712 11.355 40.8413 10.8575 40.2608 10.8575H39.7218V10.4014H40.1572C40.3645 10.4014 42.7693 10.505 43.018 10.505C43.3912 10.505 44.5107 10.4014 44.7594 10.4014H45.2363L56.431 22.612V12.972C56.431 11.4379 55.7469 10.8575 54.047 10.8575H53.5494V10.4014H54.0884C54.1506 10.4014 56.6798 10.505 56.8871 10.505C57.1773 10.505 58.8566 10.4014 59.1882 10.4014H59.5199L59.5407 10.8575C57.9859 10.9818 57.5712 11.3965 57.5712 12.744V27.9813H57.053L43.6607 13.3866V24.3741C43.6607 26.6752 44.1997 27.2972 46.1277 27.2972H46.6252V27.7947H46.0655C45.6509 27.7947 43.6192 27.6911 43.1632 27.6911C42.8936 27.6911 41.0071 27.7947 40.5925 27.7947H40.1157V27.2972C42.0851 27.1106 42.4998 26.7996 42.4998 25.3692V12.1842Z" fill="white"/>
<path d="M62.7955 12.3498C62.7955 11.2096 62.3601 10.8365 60.9712 10.8365H60.5358V10.3804H61.676C62.4638 10.3804 66.7758 10.484 66.7966 10.484C67.4185 10.484 71.5025 10.3804 72.3732 10.3804H73.5549L73.6171 14.1742H73.161C73.0781 12.2047 72.1867 11.3962 70.1135 11.3962H66.0088V18.0923H69.5538C70.9428 18.0923 71.7098 17.4497 71.8964 16.0607L72.4147 16.0814V21.3678H71.9171C71.6891 19.7093 70.8391 19.0667 68.766 19.0667H65.9466V25.1823C65.9466 26.1774 66.4441 26.6957 67.4392 26.6957H70.383C72.2903 26.6957 73.6793 25.8457 74.4878 24.0629H75.0268L73.7829 27.7737C72.933 27.7737 68.8697 27.6701 67.5222 27.6701C66.61 27.6701 62.215 27.7323 61.2199 27.7737H60.4529V27.2762H60.9297C62.3187 27.2554 62.754 26.8823 62.754 25.7421L62.7955 12.3498Z" fill="white"/>
<path d="M91.052 28.002H90.2227L86.8643 18.8389L83.4229 28.002H82.6352L76.8927 12.6195C76.4573 11.4379 76.0427 10.9611 75.2756 10.8159V10.3806H75.7732C76.1049 10.3806 77.7219 10.4842 78.0951 10.4842C78.4268 10.4842 80.106 10.3806 80.4584 10.3806H80.9974V10.8367C80.1474 10.8574 79.795 11.1062 79.795 11.583C79.795 11.8525 79.8779 12.2257 80.023 12.6403L84.0656 23.5448L86.3667 17.3255L84.8741 13.1378C84.2314 11.3342 83.6717 10.8781 82.2413 10.8367V10.3806H82.7181C83.1327 10.3806 85.2473 10.4842 85.7448 10.4842C86.1594 10.4842 88.274 10.3806 88.7508 10.3806H89.4557V10.8367H88.7508C87.7765 10.8367 87.2996 11.0647 87.2996 11.583C87.2996 11.8525 87.424 12.3293 87.5899 12.7854L91.508 23.6277L94.597 14.4231C94.9701 13.2415 95.1567 12.4744 95.1567 11.9976C95.1567 11.1684 94.7421 10.8159 93.8299 10.8159H93.2909V10.3599H93.436C93.8507 10.3599 94.8872 10.4635 95.4884 10.4635C95.7786 10.4635 96.9188 10.3599 97.4786 10.3599H97.6859V10.8159C96.9396 11.0233 96.5664 11.5623 95.9859 13.3451L91.052 28.002Z" fill="white"/>
<path d="M97.8516 23.752C98.3284 24.8923 98.743 25.4313 99.5308 26.0117C100.526 26.7788 101.853 27.1519 103.325 27.1519C105.854 27.1519 107.554 25.8252 107.554 23.9179C107.554 22.5082 106.725 21.7411 103.698 20.29C100.754 18.8803 100.008 18.1754 99.4064 17.5742C98.4943 16.5998 98.1211 15.7291 98.1211 14.5475C98.1211 11.8317 100.319 10.0488 103.656 10.0488C104.651 10.0488 105.75 10.1939 106.932 10.4842C107.409 10.6086 107.865 10.65 108.134 10.65C108.362 10.65 108.487 10.5878 108.57 10.4013H109.067L109.129 14.1121H108.715C108.445 13.2207 108.279 12.8475 107.885 12.3707C107.056 11.3963 105.771 10.8781 104.092 10.8781C101.977 10.8781 100.588 11.8732 100.588 13.3865C100.588 14.6718 101.376 15.4182 104.195 16.7035C107.803 18.3827 110 19.8753 110 22.6533C110 25.8251 107.409 27.9812 103.553 27.9812C102.578 27.9812 101.625 27.8568 100.443 27.608C100.028 27.5251 99.593 27.4629 99.3857 27.4629C99.0333 27.4629 98.9089 27.5251 98.6809 27.7946H98.1833L98.1211 27.38C97.8931 26.0325 97.6236 24.7679 97.4163 23.8972L97.8516 23.752Z" fill="white"/>
<path d="M10.8849 19.7304C10.8849 21.0157 9.84834 22.073 8.54229 22.073C7.23623 22.073 6.19968 21.0364 6.19968 19.7304C6.19968 18.445 7.23623 17.3877 8.54229 17.3877C9.84834 17.4085 10.8849 18.445 10.8849 19.7304ZM19.7163 17.4085C18.431 17.4085 17.3737 18.445 17.3737 19.7511C17.3737 21.0364 18.4103 22.0937 19.7163 22.0937C21.0016 22.0937 22.0589 21.0571 22.0589 19.7511C22.0589 18.445 21.0224 17.4085 19.7163 17.4085ZM38.7267 19.7304C38.7267 30.2203 30.227 38.72 19.737 38.72C9.24714 38.72 0.726685 30.2203 0.726685 19.7304C0.726685 9.24045 9.22641 0.740723 19.7163 0.740723C30.2062 0.740723 38.7267 9.24045 38.7267 19.7304ZM13.808 19.7304C13.808 16.828 11.4654 14.4854 8.56302 14.4854C5.66067 14.4854 3.31806 16.828 3.31806 19.7304C3.31806 22.6327 5.66067 24.9753 8.56302 24.9753C10.0764 24.9753 10.9056 23.9802 10.9056 23.9802V24.8924H13.8287L13.808 19.7304ZM24.982 19.7304C24.982 16.828 22.6394 14.4854 19.737 14.4854C18.3273 14.4854 17.3944 15.2525 17.3944 15.2525V11.9148H14.4714V19.7304C14.4714 22.6327 16.814 24.9753 19.7163 24.9753C22.6187 24.996 24.982 22.6327 24.982 19.7304ZM36.0938 20.4145H33.1293C32.8391 21.3681 31.9476 22.073 30.8904 22.073C29.605 22.073 28.5477 21.0364 28.5477 19.7304C28.5477 18.445 29.5843 17.3877 30.8904 17.3877C31.9476 17.3877 32.8391 18.0926 33.1293 19.0462H36.0938C35.7621 16.4963 33.5647 14.4854 30.8904 14.4854C27.988 14.4854 25.6454 16.828 25.6454 19.7304C25.6454 22.6327 27.988 24.9753 30.8904 24.9753C33.5647 24.996 35.7621 22.9851 36.0938 20.4145Z" fill="white"/>
</svg>
