<?xml version="1.0" encoding="utf-8"?>
<!-- Generator: Adobe Illustrator 27.3.1, SVG Export Plug-In . SVG Version: 6.00 Build 0)  -->
<svg version="1.1" id="a" xmlns="http://www.w3.org/2000/svg" xmlns:xlink="http://www.w3.org/1999/xlink" x="0px" y="0px"
	 viewBox="0 0 152.1 50.9" style="enable-background:new 0 0 152.1 50.9;" xml:space="preserve">
<style type="text/css">
	.st0{fill:#528CE0;}
	.st1{fill:#FFFFFF;}
</style>
<polygon class="st0" points="0,6.3 23.6,6.3 23.6,43.7 15.6,43.7 15.6,12.3 0,12.3 "/>
<rect y="20.2" class="st0" width="8.6" height="23.5"/>
<path class="st0" d="M31,6.3V27h7.8V12.2h2.5c2.4,0,4.3,1.9,4.3,4.3v16.9c0,2.4-1.9,4.3-4.3,4.3H31v6h13.2c5.2,0,9.3-4.2,9.3-9.3
	V15.7c0-5.2-4.2-9.4-9.3-9.4L31,6.3L31,6.3z"/>
<rect x="60.4" y="6.3" class="st0" width="8.2" height="21.8"/>
<path class="st0" d="M74.2,6.3v5.8h6.6c2.4,0,4.3,1.9,4.3,4.3v16.9c0,2.4-1.9,4.3-4.3,4.3h-6.6v6h9.5c5.2,0,9.3-4.2,9.3-9.4V15.7
	c0-5.2-4.2-9.4-9.3-9.4L74.2,6.3L74.2,6.3z"/>
<g id="b">
	<circle class="st0" cx="126.6" cy="25.5" r="23"/>
	<path class="st1" d="M126.6,5c11.3,0,20.5,9.2,20.5,20.5s-9.2,20.5-20.5,20.5s-20.5-9.2-20.5-20.5S115.3,5,126.6,5 M126.6,0
		c-14.1,0-25.5,11.4-25.5,25.5s11.4,25.5,25.5,25.5s25.5-11.4,25.5-25.5S140.6,0,126.6,0L126.6,0z"/>
	<path class="st0" d="M126.6,2c12.9,0,23.5,10.5,23.5,23.5s-10.5,23.5-23.5,23.5s-23.5-10.5-23.5-23.5S113.6,2,126.6,2 M126.6,0
		c-14.1,0-25.5,11.4-25.5,25.5s11.4,25.5,25.5,25.5s25.5-11.4,25.5-25.5S140.6,0,126.6,0L126.6,0z"/>
</g>
</svg>
