<?xml version="1.0" encoding="utf-8"?>
<!-- Generator: Adobe Illustrator 27.3.1, SVG Export Plug-In . SVG Version: 6.00 Build 0)  -->
<svg version="1.1" id="Layer_1" xmlns="http://www.w3.org/2000/svg" xmlns:xlink="http://www.w3.org/1999/xlink" x="0px" y="0px"
	 viewBox="0 0 102 41" style="enable-background:new 0 0 102 41;" xml:space="preserve">
<style type="text/css">
	.st0{filter:url(#Adobe_OpacityMaskFilter);}
	.st1{fill-rule:evenodd;clip-rule:evenodd;fill:#FFFFFF;}
	.st2{mask:url(#c_00000083077735337607314970000009359317185046192558_);fill-rule:evenodd;clip-rule:evenodd;fill:#FFFFFF;}
	.st3{filter:url(#Adobe_OpacityMaskFilter_00000108304674581116136140000015467188432922525342_);}
	.st4{mask:url(#e_00000059280397916483512470000016888299279238637200_);fill-rule:evenodd;clip-rule:evenodd;fill:#52347D;}
	.st5{filter:url(#Adobe_OpacityMaskFilter_00000013890485492522347650000006803940695629858742_);}
	.st6{mask:url(#g_00000044869340543558521070000000113668361743472816_);fill-rule:evenodd;clip-rule:evenodd;fill:#414992;}
	.st7{filter:url(#Adobe_OpacityMaskFilter_00000003079730730619794810000013676383366565781131_);}
	.st8{mask:url(#i_00000141426869450522878780000004271927616645066894_);fill-rule:evenodd;clip-rule:evenodd;fill:#246BA8;}
	.st9{filter:url(#Adobe_OpacityMaskFilter_00000091007889104411605090000007498133613363786430_);}
	.st10{mask:url(#k_00000013905567001368398790000004591584606518224785_);fill-rule:evenodd;clip-rule:evenodd;fill:#16A9C9;}
	.st11{filter:url(#Adobe_OpacityMaskFilter_00000030451954827263954310000009940804629527911562_);}
	.st12{mask:url(#m_00000016042234665361867640000003777905525751818890_);fill-rule:evenodd;clip-rule:evenodd;fill:#56BB73;}
	.st13{filter:url(#Adobe_OpacityMaskFilter_00000066512272570301253880000012940708827536203656_);}
	.st14{mask:url(#o_00000029741974940579605240000000239527905629083834_);fill-rule:evenodd;clip-rule:evenodd;fill:#FDD40D;}
	.st15{filter:url(#Adobe_OpacityMaskFilter_00000013914256785439210700000004428970384340871343_);}
	.st16{mask:url(#q_00000163772590673747801620000009464629178033738888_);fill-rule:evenodd;clip-rule:evenodd;fill:#F9A729;}
	.st17{filter:url(#Adobe_OpacityMaskFilter_00000093865813075884776120000013133037809910361018_);}
	.st18{mask:url(#s_00000092451209365303599270000015882764007833442208_);fill-rule:evenodd;clip-rule:evenodd;fill:#F26F21;}
	.st19{filter:url(#Adobe_OpacityMaskFilter_00000060014920012060551790000004608880083115945656_);}
	.st20{mask:url(#u_00000029740195344434222010000008324266643567528079_);fill-rule:evenodd;clip-rule:evenodd;fill:#D91F26;}
	.st21{filter:url(#Adobe_OpacityMaskFilter_00000054973602235268179460000017820576429145675923_);}
	.st22{mask:url(#w_00000127009620337798885230000011377323341216113032_);fill-rule:evenodd;clip-rule:evenodd;fill:#FEFEFE;}
</style>
<g transform="translate(4 2)">
	<g transform="translate(0 8.587)">
		<defs>
			<filter id="Adobe_OpacityMaskFilter" filterUnits="userSpaceOnUse" x="0" y="0" width="93.9" height="17">
				<feColorMatrix  type="matrix" values="1 0 0 0 0  0 1 0 0 0  0 0 1 0 0  0 0 0 1 0"/>
			</filter>
		</defs>
		
			<mask maskUnits="userSpaceOnUse" x="0" y="0" width="93.9" height="17" id="c_00000083077735337607314970000009359317185046192558_">
			<g class="st0">
				<path id="b_00000021837693866541738120000018044360985097178770_" class="st1" d="M0,0h93.9v17H0V0z"/>
			</g>
		</mask>
		<path class="st2" d="M37.4,12.6c-1.1-1-0.9-3.4,3.7-3C41.5,13.2,38.4,13.5,37.4,12.6 M31.6,1.1v4.5c6.9-2.8,10-0.4,9.6,1
			c-13.2-2-13,7.7-9.3,9.6c3.9,2,7.8,0.2,9.2-1.8v2.3h6.6c0,0,0.5-11.7-1.2-14.2C44.4-0.7,34.9-0.2,31.6,1.1 M83.8,12.4
			c-1.3,0-1.7-1.9-1.7-4c0-2.1,0.2-3.7,1.7-3.6c1.4-0.1,1.8,1.4,1.8,3.6C85.6,10.9,85,12.4,83.8,12.4 M84.1,0
			c-5,0-10.5,1.5-10.5,8.3c0,6.8,5.2,8.7,10.5,8.7c3.2,0,9.8-1.5,9.8-8.7C93.9,1.8,89.1,0,84.1,0 M23.1,0.1c-3.2,0-4.9,1.8-4.9,2.9
			c0-1.2-1.7-2.9-5.3-2.9c-4.2,0-5.2,2.8-5.4,3.3v-3H0v16.3h7.9V7.9c0-1.3-0.1-2.8,1.4-2.8c1.6,0,1.4,1.4,1.4,2.8v8.8h7.9V7.9
			c0-1.5,0-2.8,1.3-2.8c1.6,0,1.3,1.7,1.3,2.8v8.8H29v-9C29,4.7,30,0.1,23.1,0.1"/>
	</g>
	<g transform="translate(44.881 .034)">
		<defs>
			
				<filter id="Adobe_OpacityMaskFilter_00000173136797996741552650000012567099512260385700_" filterUnits="userSpaceOnUse" x="19.2" y="9.2" width="13.6" height="16.5">
				<feColorMatrix  type="matrix" values="1 0 0 0 0  0 1 0 0 0  0 0 1 0 0  0 0 0 1 0"/>
			</filter>
		</defs>
		
			<mask maskUnits="userSpaceOnUse" x="19.2" y="9.2" width="13.6" height="16.5" id="e_00000059280397916483512470000016888299279238637200_">
			<g style="filter:url(#Adobe_OpacityMaskFilter_00000173136797996741552650000012567099512260385700_);">
				<path id="d_00000038402093926458505380000011680080270485334205_" class="st1" d="M4.5,5.7C-1.4,9.3,0,16,0.6,19
					c0.6,2.7,2.3,11.2,7,13.2c4.2,1.8,11.6-0.3,13.6-1.1c2-0.8,7.9-3.4,9.9-7.1c3.4-6.3-3.2-21-8.8-23.5c-0.8-0.4-1.8-0.5-2.9-0.5
					C14.7,0.1,8.2,3.4,4.5,5.7"/>
			</g>
		</mask>
		<path class="st4" d="M29.8,9.8c2.2-4.4,4.7,17.9,1.2,15.7c-3.7-2.2-8.5-8.5-11.3-9C16.9,16,27.6,14.1,29.8,9.8"/>
	</g>
	<g transform="translate(44.881 .034)">
		<defs>
			
				<filter id="Adobe_OpacityMaskFilter_00000165194889969917922130000003411660821760137620_" filterUnits="userSpaceOnUse" x="19" y="1.7" width="12.4" height="27.1">
				<feColorMatrix  type="matrix" values="1 0 0 0 0  0 1 0 0 0  0 0 1 0 0  0 0 0 1 0"/>
			</filter>
		</defs>
		
			<mask maskUnits="userSpaceOnUse" x="19" y="1.7" width="12.4" height="27.1" id="g_00000044869340543558521070000000113668361743472816_">
			<g style="filter:url(#Adobe_OpacityMaskFilter_00000165194889969917922130000003411660821760137620_);">
				<path id="f_00000145749385554408262040000002243665877729033910_" class="st1" d="M4.5,5.7C-1.4,9.3,0,16,0.6,19
					c0.6,2.7,2.3,11.2,7,13.2c4.2,1.8,11.6-0.3,13.6-1.1c2-0.8,7.9-3.4,9.9-7.1c3.4-6.3-3.2-21-8.8-23.5c-0.8-0.4-1.8-0.5-2.9-0.5
					C14.7,0.1,8.2,3.4,4.5,5.7"/>
			</g>
		</mask>
		<path class="st6" d="M20.6,15.9c4.1-0.3,8.7-2.4,10.6-6c0.6-1.1-2.2-4.8-2.8-5.8c-5.5-9.4-9.8,12-9.5,12.1c2.5,1.1,6.2,7,7.8,12.3
			c0.4,1.1,3.5-2,4.6-2.7c-1.6-4.5-7.2-9.8-10.6-9.9C21.3,16,20.6,15.9,20.6,15.9"/>
	</g>
	<g transform="translate(44.881 .034)">
		<defs>
			
				<filter id="Adobe_OpacityMaskFilter_00000065770200549968091930000012234636570452362638_" filterUnits="userSpaceOnUse" x="19" y="0.3" width="8.8" height="31.2">
				<feColorMatrix  type="matrix" values="1 0 0 0 0  0 1 0 0 0  0 0 1 0 0  0 0 0 1 0"/>
			</filter>
		</defs>
		
			<mask maskUnits="userSpaceOnUse" x="19" y="0.3" width="8.8" height="31.2" id="i_00000141426869450522878780000004271927616645066894_">
			<g style="filter:url(#Adobe_OpacityMaskFilter_00000065770200549968091930000012234636570452362638_);">
				<path id="h_00000054230575398204425750000004616543998442388890_" class="st1" d="M4.5,5.7C-1.4,9.3,0,16,0.6,19
					c0.6,2.7,2.3,11.2,7,13.2c4.2,1.8,11.6-0.3,13.6-1.1c2-0.8,7.9-3.4,9.9-7.1c3.4-6.3-3.2-21-8.8-23.5c-0.8-0.4-1.8-0.5-2.9-0.5
					C14.7,0.1,8.2,3.4,4.5,5.7"/>
			</g>
		</mask>
		<path class="st8" d="M19.1,16.1c3.9-0.7,7.6-6.2,8.6-10.7c-1.5-2.3-5.9-6.6-5.7-4.7c0.4,4.8,1.1,11.3-3,15.4
			c-0.1,0.1,0.1,0.4,0.2,0.5c4.3,6.6,3.9,14.7,3.4,14.7c-0.1,0,0.6,0.1,0.9-0.1c1-0.7,3.6-2.4,4.2-2.9C26,23.1,21.6,17.1,19.1,16.1"
			/>
	</g>
	<g transform="translate(44.881 .034)">
		<defs>
			
				<filter id="Adobe_OpacityMaskFilter_00000138541614956515335280000008950672792103029437_" filterUnits="userSpaceOnUse" x="15.7" y="-1.4" width="7.9" height="34.6">
				<feColorMatrix  type="matrix" values="1 0 0 0 0  0 1 0 0 0  0 0 1 0 0  0 0 0 1 0"/>
			</filter>
		</defs>
		
			<mask maskUnits="userSpaceOnUse" x="15.7" y="-1.4" width="7.9" height="34.6" id="k_00000013905567001368398790000004591584606518224785_">
			<g style="filter:url(#Adobe_OpacityMaskFilter_00000138541614956515335280000008950672792103029437_);">
				<path id="j_00000074430461386667707700000016073587791813816961_" class="st1" d="M4.5,5.7C-1.4,9.3,0,16,0.6,19
					c0.6,2.7,2.3,11.2,7,13.2c4.2,1.8,11.6-0.3,13.6-1.1c2-0.8,7.9-3.4,9.9-7.1c3.4-6.3-3.2-21-8.8-23.5c-0.8-0.4-1.8-0.5-2.9-0.5
					C14.7,0.1,8.2,3.4,4.5,5.7"/>
			</g>
		</mask>
		<path class="st10" d="M22.6-0.9c1.2,5.9,0.7,13.3-3.4,17.1c3.5,2.9,5,15.2,4.3,15.7c-0.7,0.5-2.2,0.4-4.3,1.3
			C19,24,19.4,18.7,18.9,16c0.5-0.9,1.9-14.5-3.2-17C17.2-1.7,23.1-1.5,22.6-0.9"/>
	</g>
	<g transform="translate(44.881 .034)">
		<defs>
			
				<filter id="Adobe_OpacityMaskFilter_00000028307223707996663920000007164009868764203942_" filterUnits="userSpaceOnUse" x="12" y="-2.8" width="8.1" height="37.2">
				<feColorMatrix  type="matrix" values="1 0 0 0 0  0 1 0 0 0  0 0 1 0 0  0 0 0 1 0"/>
			</filter>
		</defs>
		
			<mask maskUnits="userSpaceOnUse" x="12" y="-2.8" width="8.1" height="37.2" id="m_00000016042234665361867640000003777905525751818890_">
			<g style="filter:url(#Adobe_OpacityMaskFilter_00000028307223707996663920000007164009868764203942_);">
				<path id="l_00000091715455466893395350000001663306200148627098_" class="st1" d="M4.5,5.7C-1.4,9.3,0,16,0.6,19
					c0.6,2.7,2.3,11.2,7,13.2c4.2,1.8,11.6-0.3,13.6-1.1c2-0.8,7.9-3.4,9.9-7.1c3.4-6.3-3.2-21-8.8-23.5c-0.8-0.4-1.8-0.5-2.9-0.5
					C14.7,0.1,8.2,3.4,4.5,5.7"/>
			</g>
		</mask>
		<path class="st12" d="M18.5-1c1.2,5.5,2.4,13.7,0.5,17c0,0.1-0.1,0.1,0,0.2c1.1,3.1,1.3,9.3,0.2,16.2c-0.1,0.8,0.6,1.1-6.7,2
			c-0.1,0-0.5-0.4-0.6-0.3c3.5-4.1,5.9-9.8,6.1-16.2c0.3-14.5-6.9-16.4-5.1-17.4c3.2-1.8,4.1-4.1,4.4-3.1C17.4-2.4,18.5-1.1,18.5-1"
			/>
	</g>
	<g transform="translate(44.881 .034)">
		<defs>
			
				<filter id="Adobe_OpacityMaskFilter_00000019641605375504706710000005483026826966039459_" filterUnits="userSpaceOnUse" x="6.9" y="-0.5" width="12" height="35.9">
				<feColorMatrix  type="matrix" values="1 0 0 0 0  0 1 0 0 0  0 0 1 0 0  0 0 0 1 0"/>
			</filter>
		</defs>
		
			<mask maskUnits="userSpaceOnUse" x="6.9" y="-0.5" width="12" height="35.9" id="o_00000029741974940579605240000000239527905629083834_">
			<g style="filter:url(#Adobe_OpacityMaskFilter_00000019641605375504706710000005483026826966039459_);">
				<path id="n_00000035515212863792243040000015434678843695392659_" class="st1" d="M4.5,5.7C-1.4,9.3,0,16,0.6,19
					c0.6,2.7,2.3,11.2,7,13.2c4.2,1.8,11.6-0.3,13.6-1.1c2-0.8,7.9-3.4,9.9-7.1c3.4-6.3-3.2-21-8.8-23.5c-0.8-0.4-1.8-0.5-2.9-0.5
					C14.7,0.1,8.2,3.4,4.5,5.7"/>
			</g>
		</mask>
		<path class="st14" d="M14.5,0.1c7.6,11.2,4,27.4-2,34.5c-2.2,2.6-6.4-1.8-5.6-2.5c5.9-5,13.2-12.9,8.5-22.7
			c-0.8-1.6-3.5-4.3-5.3-6.6c-0.3-0.4-2.4-0.4,2.2-2.8C12.9-0.2,13.8-1,14.5,0.1"/>
	</g>
	<g transform="translate(44.881 .034)">
		<defs>
			
				<filter id="Adobe_OpacityMaskFilter_00000065062075896329985520000003265914959465120664_" filterUnits="userSpaceOnUse" x="3.1" y="2.1" width="14.3" height="30.4">
				<feColorMatrix  type="matrix" values="1 0 0 0 0  0 1 0 0 0  0 0 1 0 0  0 0 0 1 0"/>
			</filter>
		</defs>
		
			<mask maskUnits="userSpaceOnUse" x="3.1" y="2.1" width="14.3" height="30.4" id="q_00000163772590673747801620000009464629178033738888_">
			<g style="filter:url(#Adobe_OpacityMaskFilter_00000065062075896329985520000003265914959465120664_);">
				<path id="p_00000155866006977587245670000016493694155410524582_" class="st1" d="M4.5,5.7C-1.4,9.3,0,16,0.6,19
					c0.6,2.7,2.3,11.2,7,13.2c4.2,1.8,11.6-0.3,13.6-1.1c2-0.8,7.9-3.4,9.9-7.1c3.4-6.3-3.2-21-8.8-23.5c-0.8-0.4-1.8-0.5-2.9-0.5
					C14.7,0.1,8.2,3.4,4.5,5.7"/>
			</g>
		</mask>
		<path class="st16" d="M15,7.6c6.9,10.4-2.6,19.8-7.7,24.9c0,0-0.2,0-0.8-0.3C5.4,31.7,4,29.1,3.1,28c5.3-2.8,16.8-8,11.5-16.6
			C13.3,9.2,10.1,6.8,6,4.9C5.9,4.9,6,4.8,5.9,4.7c-0.7-1.3,3.7-3,4.2-2.5c0.1,0.1,0.2,0.3,0.3,0.4C11.9,3.8,13.5,5.4,15,7.6"/>
	</g>
	<g transform="translate(44.881 .034)">
		<defs>
			
				<filter id="Adobe_OpacityMaskFilter_00000003104213128117089380000003893053858527559825_" filterUnits="userSpaceOnUse" x="0.1" y="3.8" width="16.1" height="24.7">
				<feColorMatrix  type="matrix" values="1 0 0 0 0  0 1 0 0 0  0 0 1 0 0  0 0 0 1 0"/>
			</filter>
		</defs>
		
			<mask maskUnits="userSpaceOnUse" x="0.1" y="3.8" width="16.1" height="24.7" id="s_00000092451209365303599270000015882764007833442208_">
			<g style="filter:url(#Adobe_OpacityMaskFilter_00000003104213128117089380000003893053858527559825_);">
				<path id="r_00000041987014315339763240000003364792204316540341_" class="st1" d="M4.5,5.7C-1.4,9.3,0,16,0.6,19
					c0.6,2.7,2.3,11.2,7,13.2c4.2,1.8,11.6-0.3,13.6-1.1c2-0.8,7.9-3.4,9.9-7.1c3.4-6.3-3.2-21-8.8-23.5c-0.8-0.4-1.8-0.5-2.9-0.5
					C14.7,0.1,8.2,3.4,4.5,5.7"/>
			</g>
		</mask>
		<path class="st18" d="M2.4,7.6c3.7,1.4,8.6,2.9,9.8,5.4c3.2,6.6-14.2,4.1-12,9.3c0.6,1.3,1.8,6.8,3.1,6.1
			c8.6-4.5,13.3-9.2,12.8-13.4C15.6,9.7,10.1,6.3,5.9,4.5C0.3,2.1-0.1,6.6,2.4,7.6"/>
	</g>
	<g transform="translate(44.881 .034)">
		<defs>
			
				<filter id="Adobe_OpacityMaskFilter_00000059302776379629455030000015730921346631926175_" filterUnits="userSpaceOnUse" x="-1.4" y="7.4" width="15" height="15.8">
				<feColorMatrix  type="matrix" values="1 0 0 0 0  0 1 0 0 0  0 0 1 0 0  0 0 0 1 0"/>
			</filter>
		</defs>
		
			<mask maskUnits="userSpaceOnUse" x="-1.4" y="7.4" width="15" height="15.8" id="u_00000029740195344434222010000008324266643567528079_">
			<g style="filter:url(#Adobe_OpacityMaskFilter_00000059302776379629455030000015730921346631926175_);">
				<path id="t_00000147918771231751187540000003412147795800424079_" class="st1" d="M4.5,5.7C-1.4,9.3,0,16,0.6,19
					c0.6,2.7,2.3,11.2,7,13.2c4.2,1.8,11.6-0.3,13.6-1.1c2-0.8,7.9-3.4,9.9-7.1c3.4-6.3-3.2-21-8.8-23.5c-0.8-0.4-1.8-0.5-2.9-0.5
					C14.7,0.1,8.2,3.4,4.5,5.7"/>
			</g>
		</mask>
		<path class="st20" d="M-0.2,23.2c2.6-0.7-0.4,0.1,4.9-1.3c5.5-1.4,12.1-5.7,7.3-10C8.7,9.1,5.4,8.1,2.3,7.4
			c-3.9,3.9-4.1,6.5-3.3,9.2C-0.2,19.4-0.2,23.2-0.2,23.2"/>
	</g>
	<g transform="translate(44.881 .034)">
		<defs>
			
				<filter id="Adobe_OpacityMaskFilter_00000119801100797517610130000014852533999093952929_" filterUnits="userSpaceOnUse" x="6.4" y="-0.1" width="21.4" height="25.3">
				<feColorMatrix  type="matrix" values="1 0 0 0 0  0 1 0 0 0  0 0 1 0 0  0 0 0 1 0"/>
			</filter>
		</defs>
		
			<mask maskUnits="userSpaceOnUse" x="6.4" y="-0.1" width="21.4" height="25.3" id="w_00000127009620337798885230000011377323341216113032_">
			<g style="filter:url(#Adobe_OpacityMaskFilter_00000119801100797517610130000014852533999093952929_);">
				<path id="v_00000155829003699011694460000000649721435101927557_" class="st1" d="M4.5,5.7C-1.4,9.3,0,16,0.6,19
					c0.6,2.7,2.3,11.2,7,13.2c4.2,1.8,11.6-0.3,13.6-1.1c2-0.8,7.9-3.4,9.9-7.1c3.4-6.3-3.2-21-8.8-23.5c-0.8-0.4-1.8-0.5-2.9-0.5
					C14.7,0.1,8.2,3.4,4.5,5.7L4.5,5.7z"/>
			</g>
		</mask>
		<path class="st22" d="M6.4,3.4v21.7h7.8l0.1-7.9l4.5,7.9h9l-5.5-9.1L27.9,9h-9l-4.6,6.5V-0.1L6.4,3.4z"/>
	</g>
</g>
</svg>
