<svg xmlns="http://www.w3.org/2000/svg" id="tm-logo--small" x="0px" y="0px" viewBox="0 0 201 42"><path class="tm-log--small__swash" fill="#00C800" d="M193.584 21.152c0.051-0.473 0.257-0.794 0.541-1.136l0.095-0.115 -1.733 0.081c-0.41 0.003-0.508 0.116-0.593 0.231 -0.036 0.05-0.064 0.086-0.117 0.115 -0.051 0.028-0.138 0.055-0.308 0.063 -0.351 0.016-0.568-0.013-0.753-0.068 -0.096-0.028-0.184-0.064-0.277-0.104 -0.097-0.042-0.2-0.089-0.319-0.137l-0.161-0.066 0.074 0.71 -1.389 0.089c-0.013 0.431 0.674 0.707 0.753 1.134l1.23-0.079 -0.051-0.703c1.055-0.469 2.119-0.491 2.84 0.029l0.152 0.11L193.584 21.152zM184.86 18.81c-0.504-0.706-1.859-2.044-2.414-0.835 0.273 0.249 0.656 0.374 0.835 0.745L184.86 18.81zM187.523 19.033c0.849-1.448 0.781-1.773 2.49-1.003 -0.175-0.229-0.344-0.472-0.455-0.752 -0.862-0.117-1.725-0.239-2.588-0.362 0.041 0.183 0.089 0.426-0.021 0.579 -0.773-0.559-1.834-0.807-2.688-0.553C185.657 17.334 186.275 18.298 187.523 19.033zM192.645 30.938c-1.439 1.31-0.717 2.634-3.325 0.936 0.101 0.279 0.188 0.593 0.187 0.891l2.81 0.633c0.036-0.213 0.111-0.516 0.288-0.655 0.613 0.718 2.029 1.033 2.885 0.837C192.205 32.364 195.199 33.033 192.645 30.938zM43.019 3.307l-2.298 0.128 0.324 1.079 2.063-0.011L43.019 3.307zM45.744 1.348L44.48 1.431l0.089 1.194 1.479 0.184L45.744 1.348zM51.353 2.148l-1.35 0.089c-0.013 0.464-0.182 0.647-0.666 0.73l0.094 1.27 1.351-0.089c0.011-0.467 0.181-0.65 0.666-0.726L51.353 2.148zM179.244 12l2.876-0.191C181.018 11.39 179.509 10.498 179.244 12zM142.41 7.611l-1.722 0.114c-0.81 0.004-0.321 0.602-1.128 0.655 -0.807 0.054-1.035-0.201-1.563-0.514l0.131 1.815c1.308-1.01 2.725-1.18 3.667-0.195C141.853 8.702 142.091 8.167 142.41 7.611zM79.682 4.091l-1.897 0.121c-0.013 0.432 0.673 0.708 0.754 1.135l1.23-0.079L79.682 4.091zM58.749 3.86c-0.199-0.119-0.508-0.26-0.82-0.208l-0.19 0.031 -0.007 0.193c-0.029 0.746 0.823 0.792 1.288 0.649l0.394-0.122c0 0-0.343-0.315-0.408-0.368C58.943 3.987 58.853 3.922 58.749 3.86zM29.9 2.227c0.55 0.075 1.365 0.003 2.15-0.591l0.495-0.374 -0.617-0.052c-0.836-0.069-1.772 0.004-2.193 0.652L29.53 2.177 29.9 2.227zM99.968 5.265c0.249-0.104 0.52-0.297 0.462-0.605l-0.017-0.092 -0.092-0.003c-0.241-0.01-0.573 0.041-0.839 0.151 -0.248 0.104-0.519 0.298-0.461 0.605l0.016 0.091 0.092 0.004C99.37 5.426 99.702 5.375 99.968 5.265zM92.665 5.096c0.25-0.104 0.521-0.297 0.464-0.605L93.111 4.4l-0.092-0.004c-0.241-0.01-0.574 0.042-0.84 0.152 -0.25 0.104-0.521 0.299-0.463 0.605l0.017 0.092 0.092 0.004C92.066 5.258 92.398 5.207 92.665 5.096zM97.383 4.958c0.222-0.218 0.417-0.482 0.365-0.76l-0.019-0.101 -1.414 0.09 0.112 1.541 0.171-0.13c0.128-0.097 0.266-0.2 0.4-0.306C97.136 5.183 97.268 5.071 97.383 4.958zM159.897 5.851c0.189-0.28-0.204-0.614 0.592-0.668 0.798 0.892 0.238 2.166 0.787 3.31 2.302-1.615 1.79 0.235 3.638 0.514 1.076 0.163 2.071-0.532 3.125-0.589 -0.736-0.402-1.786-0.446-2.887-0.854 -0.712-0.263-2.022-0.467-1.794-0.755 0.824-0.03 1.709-0.213 2.417 0.01 0.828 0.26 1.594 1.064 2.398 1.012l3.821-0.292c0.803-0.053-0.675 0.895 1.062 0.727 1.348-0.13-0.262-0.738 0.541-0.79 0.803-0.052 2.987 1.338 4.327 1.485 1.908 0.227 4.189 0.467 6.226 0.379 0.099 0.731 0.409 1.227 0.806 1.727l-0.953 0.063c-0.796 0.108-0.521-0.538-0.758-0.545 -0.221 0.579-0.838 0.706-0.782 1.487 0.056 0.781 0.332 0.808 0.559 1.061 0.188-0.28-0.205-0.614 0.595-0.667 0.8-0.053 1.1 0.884 1.859 1.323 -0.787 0.173-1.339-0.149-1.606 0.131 0.031 0.252 0.282 0.299 0.282 0.299l0.209 0.01 -0.274 0.031c-0.221-0.037-0.537-0.196-0.704-0.353l-0.522-0.442c-0.141-0.183-0.284-0.25-0.319-0.147 -0.035 0.103-0.206 0.271-0.257 0.172 -0.051-0.1-0.169-0.267-0.219-0.164 -0.051 0.104-0.329 0.195-0.464 0.008l-0.308-0.564c-0.039-0.233-0.242-0.357-0.453-0.278l-3.541 0.992c-0.224-0.001-0.414 0.191-0.421 0.426l-0.022 0.678c-0.007 0.235 0.114 0.494 0.271 0.576 0.157 0.081 0.622-0.084 0.632-0.318l0.125-0.72c0.036-0.233 0.188-0.28 0.338-0.104l0.824 1.015c0.176 0.145 0.388 0.084 0.469-0.134 0 0 0.152-0.409 0.734-0.413 0.552-0.003 0.523 0.795 1.076 0.795 0.929 0.001 2.503 0.194 2.503 0.194 0.222 0.027 0.482-0.125 0.579-0.336l0.303-0.535c0.04-0.231 0.225-0.313 0.41-0.182l1.797 0.22c0.191-0.122 0.416-0.11 0.501 0.025 0.084 0.135 0.337 0.433 0.532 0.321l0.707-0.274c0.073-0.075 0.176-0.14 0.289-0.188l2.019 0.138c-0.024 0.017-0.058 0.035-0.102 0.052l-0.707 0.186c-0.212 0.07-0.29 0.169-0.172 0.219 0.118 0.05 0.661 0.087 0.707 0.089 0.045 0.001 0.078 0.046 0.074 0.099 -0.004 0.054 0.252 0.255 0.469 0.203l0.978-0.034c0.181 0.137 0.451 0.106 0.6-0.069l0.08-0.095c0.149-0.175 0.155-0.325 0.016-0.333 -0.14-0.009-0.286-0.165-0.065-0.189 0.503 0.019 0.948 0.042 1.395 0.064 0.026 0.04 0.044 0.086 0.05 0.135 0.025 0.194 0.019 0.651 0.225 0.663 -0.08 0.081-0.158 0.178-0.22 0.303 0.118 0.084 0.282 0.122 0.457 0.144l-0.707 0.04c-0.216-0.055-0.449 0.066-0.517 0.268 -0.069 0.202-0.109 0.755-0.323 0.751 -0.114-0.003-0.331 0.118-0.498 0.254 -0.341 0.054-0.686-0.007-1.029-0.226 0.409 1.685-0.749 0.928-1.277 1.807l-0.55-0.635 0.421 1.212c0.581-0.125 1.134-0.822 1.708-0.826 1.216-0.008 2.37 0.945 3.59 1.035 0.134-0.003 0.296-0.019 0.476-0.048 -0.029 0.274-0.018 0.606 0.006 0.942 0.056 0.779 1.023 0.478 1.079 1.257 0.056 0.778-1.572 1.827-1.515 2.605 0.042 0.584 1.253 0.781 2.758 1.16 0.203 1.246 1.929 2.73 1.984 3.509 0.083 1.153 0.14 1.695-0.82 2.688 0.793 0.433 1.38 0.78 1.392 0.906 0.102 1.189 0.234 1.353-0.721 2.336 -0.67 0.241-1.444 0.568-1.545 0.564 -0.932-0.044-2.643-1.338-3.706-1.457 -0.972-0.11-4.647 1.01-5.001 1.973 2.31-0.154 5.21-1.996 7.19 0.238 -0.309 0.194-0.673 0.359-0.621 0.818 0.608-0.203 1.25-0.311 1.78 0.191 0.283-2.251 1.337-1.265 2.14-1.766 0.067 0.089 0.118 0.238 0.139 0.491 0.068 0.793-0.617 0.216-0.549 1.009 0.068 0.793 0.212 0.62 0.675 0.664 -0.869 1.605-1.758 1.992-3.295 2.135 -0.365 0.034-1.05-0.04-1.832-0.14l0.258-0.834c0.12-0.227 0.242-0.455 0.273-0.506 0.031-0.052-0.154-0.081-0.41-0.063l-1.087 0.072c-0.256 0.017-0.664 0.095-0.908 0.173 0 0-0.148 0.048-0.246 0.236 -0.042 0.082-0.074 0.141-0.136 0.189 -0.059 0.046-0.161 0.09-0.359 0.104l-0.153 0.006c-0.042-0.048-0.16-0.075-0.442-0.049 -0.135-0.014-0.209-0.04-0.28-0.069 -0.112-0.047-0.215-0.104-0.323-0.17l-0.114-0.068 -0.351-0.211c-0.052-0.03-0.079 0.155-0.06 0.412l0.016 0.209 -1.395 0.129c-0.896-0.245-1.813-0.406-2.697-0.711 0.072-0.692-0.235-1.385-0.19-2.086 0.056-0.857 0.772 0.201 0.693-0.657l-0.09-0.62c0.803 0.14 1.709 0.19 2.437-0.207 -0.193-0.304-0.525-0.583-0.876-0.633 -0.268 1.39-1.961 0.112-2.675 0.122 -0.031 0.206-0.089 0.5-0.246 0.648 -0.176-0.746-0.804-1.538-1.569-1.608 -0.818-0.076 0.454 0.772-0.365 0.69 -0.802-0.08 0.347-0.692-0.456-0.772 -0.805-0.081 0.274 0.722-0.53 0.673 -0.916-0.055-1.938-0.234-2.792 0.172 -0.042 0.388 0.289 0.942 0.297 1.435l-1.373-0.409c0.318-0.156 0.682-0.292 0.658-0.738 -1.457-0.235-1.751 0.266-3.109-1.073 -0.109 0.47-0.176 0.864-0.489 1.237 0.577 0.453 1.412 0.297 1.628 0.525 -0.301 0.505 0.285 1.036-0.048 1.527 0.663-0.166 1.323-0.209 1.955 0.145 -0.317 0.503-0.839 0.406-1.343 0.467 0.19 0.334 0.327 0.769 0.186 1.12 -0.47-0.011-0.939-0.018-1.407-0.019l-1.161-0.234c0.303-0.148 0.666-0.092 0.992-0.128l-0.757-1.062c-0.643 0.518-1.871 1.169-2.315-0.048 -0.134 0.259 0.295 0.536-0.134 0.526l-0.224-0.015c-0.553-0.057-0.775-0.381-1.154 0.137 0.588 0.141 1.109 0.447 1.658 0.694l-0.07 0.109 -2.768-0.076c-0.584-0.401-0.981-1.191-1.744-1.215 -0.044 0.259-0.165 0.508-0.317 0.726 -0.058-0.004-0.13-0.006-0.219-0.003l-0.21 0.019c-1.032-1.171-2.493-1.637-3.173 0.274 -0.144-0.62-0.122-1.393-0.596-1.877 -2.068 2.754-2.704 0.083-3.963-0.031 -0.748-0.066-0.798 1.014-1.546 0.942 -0.787-0.076-0.67-0.728-1.104-1.204 -0.541 0.462-1.686 1.162-2.042 1.848l-0.089-0.004c-0.107-0.558-0.085-1.133-0.077-1.699 0.19 0.08 0.437 0.219 0.764 0.432 -0.065-0.179-0.12-0.381-0.12-0.573l-0.643-0.168c-0.06-0.013-0.12-0.017-0.177-0.016l-0.987-0.222c-0.024 0.137-0.071 0.332-0.186 0.421 -0.394-0.462-1.305-0.665-1.854-0.538 2.112 0.781 0.187 0.352 1.829 1.698l0.076-0.073 -0.032 0.634c-0.545-0.11-1.052-0.353-1.324-0.329 -3.526 0.323-3.714 0.017-4.516 0.09 -0.803 0.074 0.537 0.596-0.266 0.669 -0.802 0.074-0.991-0.232-1.325-0.362 0.307-0.189 0.46-0.33 0.46-0.33l-3.72 0.144c-0.636 0.059-0.692-0.582-1.496-0.508 -0.804 0.073-0.666 0.336-1.064 0.743 -0.718-0.458-1.871-0.475-1.992-0.465 -0.805 0.074-1.217 0.094-1.883 0.494 -1.692-0.171-4.968-0.839-5.774-0.766 -0.807 0.074-2.449-0.101-7.945 0.4 -0.324 0.029-0.582-0.595-1.392-0.525l-5.839 0.53c-1.075-0.575-2.336-1.082-3.149-1.008 -0.812 0.073-0.106 0.658-0.919 0.732 -0.812 0.074-0.634-0.315-0.928-0.57l-4.006 0.362c-0.566 0.055-0.579 0.368-0.534 0.553 -0.144-0.357-0.305-0.473-0.305-0.473 -0.161 0.294-0.243 0.674-0.728 0.617 0.318-0.531-0.223-0.529-0.548-0.5 -3.91 0.355-4.846 0.098-5.68 0.447 0.297-0.562 0.082-0.59-0.733-0.516 -0.817 0.074-0.76 0.719-1.577 0.793 -0.817 0.075-8.779-0.508-9.599-0.434 -0.819 0.075-1.334 0.399-1.809 0.803 -0.143-0.463 0.335-0.669-0.485-0.595l-5.251 0.474c-0.822 0.074-0.437 0.692-0.886 0.684 -0.115-0.758-0.527-1.21-1.35-1.159l-5.67 0.511c-0.089-0.459 0.062-0.635-0.762-0.561 -0.824 0.074-1.426 0.781-2.25 0.856 -0.825 0.075-2.861-0.396-3.686-0.321 -0.825 0.075-1.759 0.813-2.585 0.887 -0.826 0.075-3.256-1.016-4.082-0.941 -0.828 0.075-0.44 0.695-1.267 0.769 -0.828 0.075-0.885-0.575-1.714-0.501 -0.827 0.075-0.315 0.684-1.143 0.755l-5.645 0.508c-1.1-0.581-2.267-1.104-3.098-1.03l-8.779 0.79c-0.833 0.075-0.443 0.696-0.865 0.71 -0.458-0.682-0.802-0.56-1.636-0.485 -0.501 0.046-1.319 0.777-1.444 0.788 -0.835 0.075-4.124-0.945-4.959-0.87 -0.836 0.075-1.113 0.758-1.949 0.833 -0.836 0.075-1.731-0.503-2.568-0.427 -0.837 0.075-2.119 0.849-2.957 0.925 -0.838 0.075-3.244-0.368-4.084-0.292 -0.839 0.075-4.075 1.39-5.757 1.045 -0.691-0.144-1.554 0.561-1.626-0.259L9.937 40.49c-0.073-0.819 0.687 0.104 0.615-0.716 -0.073-0.819-0.45-0.807-0.733-0.961 -0.157-0.933-0.447-2.563-0.781-3.93C8.421 34.922 7.78 35.3 7.73 34.619l-0.08-1.086c-0.059-0.804 0.88 0.005 0.821-0.799 -0.059-0.804-1.479-3.688-1.762-3.845 -0.291-1.872-0.251-0.573-0.804-2.274 -0.272-0.79-0.004-1.882-0.411-2.744 -0.354-0.745-0.728-1.611-0.87-2.528 -0.253-0.267-0.975-0.317-1.035-1.121 -0.06-0.805 0.938-1.194 0.878-1.999 -0.06-0.805-0.283-0.328-0.559-0.475 -0.199-0.571 0.194-3 0.105-3.614C3.628 12.122 1.76 11.8 1.206 9.986c0.486-0.032 0.666-0.18 0.707-0.416 -0.596-0.311-0.821-0.96-1.303-1.044L0 4.466c0.025-0.807 0.589-0.77 0.64-1.576s0.464-0.758 0.464-0.758l3.632-0.173C5.588 2.012 5.195 1.24 6.045 1.308l2.96-0.236c0.849-0.053 1.109 0.577 1.958 0.523 0.849-0.053 0.632-0.685 1.481-0.738 0.848-0.054 0.726 0.6 1.575 0.547 0.848-0.053 1.139-0.716 1.57-0.719 0.453 0.683 1.021 1.203 1.868 1.15 0.381-0.024 1.012-0.71 3.683-0.752 -0.729 0.55-1.407 0.592-1.982 0.857 0.367 0.5 0.402 0.731 1.249 0.677 0.846-0.053 1.214-0.352 1.512-0.632l-0.076-1.027 3.294-0.207c0.247 0.843 0.864 0.547 1.793 0.488 0.845-0.054 2.485-0.8 3.329-0.853 0.843-0.053 2.914 0.461 3.756 0.408C34.858 0.743 35.752 0.733 36.468 0c1.804 0.706 1.507 2.844 3.231 2.736 0.21-0.013 0.614-0.045 1.24-1.122 0.441-0.253 1.007-0.466 1.025-0.902 0.451-0.075 0.162 0.585 1.003 0.532 0.839-0.053 0.265-0.98 1.105-1.033 0.839-0.053 5.486 0.941 7.965 1.163 0.051 2.475 2.763 0.197 4.011 0.74 0.486 0.558 1.06 1.095 1.896 1.042 0.836-0.053 0.905-0.697 1.657-1.009 0.525-0.218 1.113-0.128 1.459 0.01 -0.323 0.181-0.678 0.452-0.707 0.665 2.695 0.364 0.343-0.482 2.22-0.601 0.835-0.052 0.547 0.606 1.382 0.553 0.833-0.053 0.12-0.648 0.953-0.701 0.834-0.053 0.881 0.584 1.714 0.532 0.833-0.054 1.553-0.591 2.75-0.874 -0.659-0.443-2.42-0.702-1.878-0.99 0 0 0.245-0.023 1.049-0.127 0.431-0.055 1.711 0.156 1.711 0.156l1.373-0.207c-0.518 0.494-0.695 0.66-0.57 0.935 0.492 0.624 3.127 0.668 5.026 0.388 0.661-0.082 1.397 1.02 2.226 0.967 0.83-0.053 0.783-0.689 1.613-0.742 0.829-0.052 2.533 0.478 3.362 0.425 0.828-0.052 2.106-0.772 2.934-0.825 0.827-0.053 1.302 0.891 1.886 1.158 0.221-0.288-0.019-0.638 0.807-0.691 0.827-0.052 0.617 0.007 1.027 0.413 -0.348 0.454-0.341 0.547-0.071 0.805l1.137-0.334c-0.052-0.218-0.736-0.492-0.724-0.922l1.231-0.078c0.08 0.424-0.074 0.593 0.752 0.54 0.826-0.053 0.78-0.687 1.605-0.74 0.825-0.052 1.578 1.174 2.402 1.121 0.824-0.053 2.716-0.805 3.927-1.138l-0.069-0.947 0.849-0.054c0.386 0.254 0.42 0.881 0.737 1.047 3.646 0.514 10.436 1.348 11.257 1.295 0.82-0.052 2.577-0.799 3.395-0.851 0.819-0.053 2.903 0.465 4.157 1.004 0.218-0.287 0.308-0.656 1.125-0.708 0.654-0.042 2.693 0.233 4.324 0.371l-0.111 1.309L125.43 4.34l0.085 1.169 1.209-0.078 -0.042-0.576c2.08 0.34 4.307 0.752 5.748 2.532 0.161-0.802 0.468-1.598 1.226-1.938 0.169 0.277 0.302 0.588 0.388 0.901 0.087-0.259 0.217-0.616 0.442-0.784 0.128 0.279 0.217 0.585 0.261 0.887 0.25-0.23 1.982-2.003 1.891-1.43 4.459 3.471 4.543-0.139 8.418 1.446l-0.801 0.311c0.89 0.279 1.771-0.002 2.585-0.326 0.665 0.51 4.843 0.74 5.614 0.778l0.768 0.972c1.128-0.922 2.056-2.15 3.286-2.928 0.236 0.893 0.875 1.643 0.851 2.602 1.293 0.216 2.173 0.101 3.4-0.012 -0.397-0.654-0.81-1.182-1.155-1.812C159.524 5.907 159.751 5.713 159.897 5.851zM193.241 18.163l1.363-0.456c0.216 0.054 0.345-0.005 0.286-0.128 -0.058-0.124-0.152-0.397 0.067-0.441l0.238-0.048c0.218-0.044 0.327 0.088 0.241 0.294 -0.086 0.206 0.029 0.7 0.247 0.747 0 0 0.297 0.064 0.678 0.124 0.173 0.065 0.253 0.126 0.279 0.189C195.532 18.762 194.434 18.891 193.241 18.163zM181.918 38.77c-0.544-0.026-1.088-0.049-1.633-0.07 0.359-0.369 0.73-0.72 1.148-1.008C181.547 38.071 181.745 38.417 181.918 38.77zM185.341 39.191c-0.217-0.048-0.438-0.095-0.661-0.14 -0.458-0.7-0.887-1.408-1.14-2.23 -0.646 0.472-0.969 0.131-1.171-0.612 0.863-0.586 1.691-1.223 2.561-1.798 0.434 0.602 1.108 1.052 1.413 1.746 -0.582 0.51-1.382 0.547-2.029 0.936C185.31 37.569 185.266 38.366 185.341 39.191zM143.414 4.396l1.38-0.089c0.122-0.008 1.616-0.736 2.104-0.767 0.809-0.052 2.15 0.493 3.457 0.566 -0.312 0.178-0.463 0.371-0.463 0.371 0.292 0.16 0.498 0.1 0.76 0.095 0.251-0.297 0.016-0.644 0.825-0.696 0.809-0.052 0.626 0.321 0.914 0.58l2.168-0.139c0.115 0.048 0.228 0.105 0.341 0.174 -0.387 0.567-0.991 0.429-1.581 0.475 0.258 0.491 0.416 1.159-0.014 1.57l-1.385-0.339c0.197-0.102 0.329-0.245 0.295-0.429 -0.292-0.012-0.741 0.076-0.988 0.259l-1.261-0.256c0.358-0.156 1.251-0.157 1.633-0.182l-0.765-1.105c-0.768 0.569-2.223 1.262-2.693-0.169 -0.165 0.295 0.322 0.635-0.176 0.602l-0.26-0.028c-0.642-0.093-0.888-0.479-1.349 0.102 0.794 0.225 1.471 0.706 2.223 1.036l-3.625-0.252C144.41 5.371 144.022 4.673 143.414 4.396zM143.093 4.301l-0.049 0.161c-0.122 0.4-0.383 0.759-0.652 1.034l-0.097 0.1 -0.08-0.113c-0.237-0.333-0.503-0.631-0.783-0.875l-0.215-0.186L143.093 4.301zM138.919 4.264l0.165 0.056 -0.114 0.131c-0.182 0.209-0.35 0.491-0.495 0.859l-0.222-0.02c-0.07-0.357-0.092-0.755-0.161-1.136l-0.035-0.201 0.19 0.072C138.485 4.113 138.71 4.195 138.919 4.264zM135.11 4.033l-0.082-1.129 0.158 0.043c0.648 0.173 1.336 0.422 1.993 0.67l0.173 0.066 -0.135 0.128c-0.919 0.867-1.598 0.849-2.184 0.497L134.9 4.227 135.11 4.033zM132.561 3.12l-0.176 0.2 -0.205 0.236c-0.071 0.079-0.148 0.157-0.234 0.223 -0.176 0.136-0.389 0.221-0.668 0.183 -0.504-0.07-0.72-0.32-0.868-0.621l-0.08-0.163c0 0 0.427-0.139 0.71-0.18C131.629 2.912 132.561 3.12 132.561 3.12zM129.095 3.208l-0.298 0.22c-0.269 0.198-0.502 0.309-0.692 0.427 -0.178 0.11-0.298 0.215-0.371 0.4l-0.145 0.362 -0.076-0.382c-0.039-0.195-0.086-0.3-0.123-0.406 -0.042-0.121-0.071-0.245-0.067-0.464l0.001-0.112L129.095 3.208z"/><path class="tm-log--small__text" fill-rule="evenodd" fill="#FFFFFF" d="M23.391 31.89V11.965h-7.049V9.306h16.637v2.659h-6.704V31.89H23.391zM35.494 31.902h2.768v-8.321c0-0.97 0-2.44 0.466-3.316 0.378-0.751 1.052-2.096 3.175-2.096 3.146 0 3.41 3.035 3.41 4.442v9.291h2.796v-9.822c0-2.283-0.414-3.13-0.705-3.756 -0.845-1.907-3.048-2.806-5.485-2.706 -1.268 0.053-2.693 0.372-3.656 1.666V9.318h-2.768V31.902zM53.424 24.548c-0.058 3.253 1.07 5.662 4.194 5.662 1.165 0 3.206-1.001 3.439-3.255h2.738c-0.088 0.784-0.204 2.065-1.253 3.285 -0.64 0.783-2.098 2.096-5.04 2.096 -4.183 0-6.788-3.065-6.788-8.039 0-3.096 0.582-5.661 2.884-7.382 1.398-1.063 3.146-1.158 3.991-1.158 5.972 0 6.409 6.226 6.351 8.791H53.424zM61.144 22.483c0.03-1.502-0.531-4.63-3.612-4.63 -1.776 0-3.933 1.158-3.991 4.63H61.144zM66.575 31.867h5.04V13.717l4.598 18.151h5.243l4.784-17.995v17.995h5.506L91.717 9.251l-9.045 0.068 -3.486 14.725L74.991 9.319l-8.415-0.036V31.867zM104.144 21.733c-6.293-0.282-9.993 1.282-9.993 5.568 0 2.784 1.574 4.88 5.157 4.88 3.001 0 4.807-2.566 4.807-2.566v2.252h5.128V21.545c0-1.69-0.35-3.159-1.282-4.129 -1.543-1.626-4.341-1.814-5.651-1.814 -2.651 0-4.923 0.72-6.06 1.971 -0.911 1.004-1.072 2.091-1.117 2.846l4.866-0.003c0.034-1.332 1.134-2.044 2.064-2.044C103.617 18.371 104.3 19.755 104.144 21.733zM99.542 26.768c0 1.158 0.698 2.127 2.009 2.127 0.583 0 1.603-0.251 2.156-1.501 0.437-1.001 0.437-2.284 0.408-2.941C101.784 24.486 99.542 24.517 99.542 26.768zM112.312 31.867h5.448v-6.663c0-1.689 0.468-4.351 3.817-4.351 0.379 0 0.524-0.062 1.166 0v-4.48c-1.253-0.031-3.991-0.326-5.245 1.71v-1.92h-5.186V31.867zM141.395 31.867l-5.364-9.072 4.638-6.631h-5.506l-4.966 7.05 5.17 8.652H141.395zM124.793 9.283v22.584h5.361V9.283H124.793zM159.091 31.867h5.448v-6.663c0-1.689 0.468-4.351 3.818-4.351 0.379 0 0.524-0.062 1.165 0v-4.48c-1.253-0.031-3.991-0.326-5.245 1.71v-1.92h-5.186V31.867zM146.425 27.041c-0.192-0.61-0.142-1.259-0.142-1.836h10.498c0-2.753-0.176-4.254-0.818-5.599 -0.989-2.221-3.08-4.004-6.963-4.004 -5.182 0-7.778 3.41-7.778 8.665 0 5.192 3.317 8.318 7.778 8.318 3.595 0 7.07-1.874 7.753-5.702h-5.216c-0.344 1.547-1.574 2.199-2.537 2.199C147.606 29.082 146.771 28.138 146.425 27.041zM151.622 22.014c0-1.119-0.692-2.972-2.623-2.972 -2.261 0-2.716 2.281-2.65 2.972H151.622z"/></svg>