<svg xmlns="http://www.w3.org/2000/svg" height="48" viewBox="0 96 960 960" width="48"><path fill="white" d="M148 827q-15.75 0-26.375-10.86Q111 805.281 111 790.14q0-15.14 10.625-25.64T148 754h666q14.775 0 25.388 10.675Q850 775.351 850 790.491q0 15.141-10.612 25.825Q828.775 827 814 827H148Zm0-215q-15.75 0-26.375-10.86Q111 590.281 111 575.14q0-15.14 10.625-25.64T148 539h666q14.775 0 25.388 10.675Q850 560.351 850 575.491q0 15.141-10.612 25.825Q828.775 612 814 612H148Zm0-214q-15.75 0-26.375-10.86Q111 376.281 111 361.14q0-15.14 10.625-25.64T148 325h666q14.775 0 25.388 10.675Q850 346.351 850 361.491q0 15.141-10.612 25.825Q828.775 398 814 398H148Z"/></svg>