<svg xmlns="http://www.w3.org/2000/svg" height="48" viewBox="0 96 960 960" width="48"><path fill="#C4C4D4" d="M202 875v34q0 22.644-13.9 37.822Q174.2 962 149.647 962q-22.23 0-37.439-15.875Q97 930.25 97 907.538V577.444L182 319q6-20 24.719-33.5 18.718-13.5 42.567-13.5H711q23.876 0 42.616 13.6Q772.357 299.2 778 319l86 258.451v331.086q0 23.107-14.9 38.285Q834.2 962 810.744 962q-21.593 0-37.168-15.875Q758 930.25 758 908v-33H202Zm12-352h533l-52-158H265l-51 158Zm-24 59v201-201Zm100.265 155Q313 737 329 720.951t16-37.833q0-23.451-16.167-39.785Q312.667 627 291.5 627q-24.833 0-40.167 16.147-15.333 16.147-15.333 39T251.39 721q15.389 16 38.875 16Zm380.235 0q23.833 0 39.667-16.049Q726 704.902 726 683.118q0-23.451-15.89-39.785Q694.221 627 671.735 627 648 627 632.5 643.147t-15.5 39Q617 705 632.667 721q15.666 16 37.833 16ZM190 783h580V582H190v201Z"/></svg>