<svg xmlns="http://www.w3.org/2000/svg" height="48" viewBox="0 96 960 960" width="48"><path fill="#C4C4D4" d="M531.564 992q-22.618 0-34.091-15.536Q486 960.929 495 940.102L649 532q5-16 22.029-28 17.03-12 34.971-12 16 0 33.925 12Q757.85 516 764 532l158 403q8 26-3 41.5T881 992q-12 0-23.273-8.417Q846.455 975.167 843 963l-33.167-103H610l-39 105q-3.771 11.583-15.518 19.292Q543.735 992 531.564 992ZM632 788h148l-73.378-202H705l-73 202ZM281 431q17 29 34.9 54.52Q333.8 511.04 356 538q47.396-49.757 78.862-102.294Q466.328 383.17 489 326H63.614q-17.375 0-28.995-11.789Q23 302.421 23 285.211 23 268 34.85 255.393 46.7 242.786 64 242.786h250.152v-41.893q0-17.254 11.905-29.074Q337.962 160 355.343 160q17.382 0 29.519 11.873Q397 183.746 397 201.08v42.081h249.331q17.394 0 29.531 12.458Q688 268.078 688 285.539 688 303 675.581 314.5q-12.42 11.5-29.822 11.5h-74.975Q548 400 510 468.5T416 599l102 103-29.356 84.108L355.307 659 177 838q-17.267 16-33.633 14.5Q127 851 120 837q-13-12.267-13-28.133 0-15.867 13.168-28.035L303 598.395Q274 566 251 534q-23-32-42-69-13-21-3.5-38t38.061-17q9.825 0 20.632 6Q275 422 281 431Z"/></svg>