<svg xmlns="http://www.w3.org/2000/svg" height="48" viewBox="0 96 960 960" width="48"><path fill="#C4C4D4" d="M479.885 570q30.477 0 52.796-21.704Q555 526.593 555 496.115q0-30.477-22.283-52.796Q510.433 421 479.956 421q-30.478 0-52.217 22.283Q406 465.567 406 496.044q0 30.478 21.704 52.217Q449.407 570 479.885 570ZM480 876q125.425-114.374 185.213-207.228Q725 575.918 725 503.916q0-111.778-70.894-182.347Q583.213 251 480.188 251t-173.607 70.812Q236 392.623 236 503.68q0 72.32 60.821 164.237T480 876Zm.111 99q-10.37 0-20.65-3.455Q449.182 968.091 441 962 291 828.051 218 715.177T145 504q0-157.317 100.951-250.659Q346.902 160 479.761 160q132.858 0 234.548 93.341Q816 346.683 816 504q0 98.091-73.5 211.071T519 962q-7.96 6.091-18.239 9.545-10.28 3.455-20.65 3.455ZM480 504Z"/></svg>