<svg xmlns="http://www.w3.org/2000/svg" height="48" viewBox="0 96 960 960" width="48"><path d="M480 995q-86.886 0-162.443-32.5Q242 930 184 872.5 126 815 93.5 739.601T61 576.479Q61 489 93.5 413.5 126 338 184 280t133.557-90.5Q393.114 157 480 157q88 0 163.5 32.5t133 90.5q57.5 58 90 133.684T899 576.411V627q0 63-43 103t-107 40q-40.898 0-73.449-19.5Q643 731 626 698q-25 37-62 54.5T480 770q-81.285 0-138.143-56.466Q285 657.067 285 575.034 285 493 341.787 436.5 398.574 380 479.76 380 561 380 618 436.5 675 493 675 576v43.933q0 30.967 21.6 51.017Q718.2 691 749 691q28.4 0 49.2-20.05Q819 650.9 819 619.933V576q0-142.362-98.319-240.681Q622.362 237 479.5 237q-140.862 0-239.681 98.819Q141 434.638 141 576q0 142.362 98.319 240.681Q337.638 915 480 915h175q15.3 0 27.15 11.772 11.85 11.772 11.85 28Q694 972 682.15 983.5T655 995H480Zm.235-304q48.348 0 82.057-33.238Q596 624.525 596 576.471q0-48.054-33.944-82.763Q528.113 459 479.765 459t-82.057 34.708Q364 528.417 364 576.471t33.944 81.291Q431.887 691 480.235 691Z"/></svg>