<svg xmlns="http://www.w3.org/2000/svg" height="48" viewBox="0 96 960 960" width="48"><path d="M150 918q-37.175 0-64.088-27.612Q59 862.775 59 827V325q0-36.188 26.912-64.094Q112.825 233 150 233h660q37.588 0 64.794 27.906Q902 288.812 902 325v502q0 35.775-27.206 63.388Q847.588 918 810 918H150Zm660-518L505.099 604.889q-8.161 5.111-13.821 6.611-5.659 1.5-11.468 1.5-5.81 0-11.279-1.5t-13.63-6.611L150 400v427h660V400ZM480 543l325-218H156l324 218ZM150 400v10V356.992v1.481V325v33-.912V410v-10 427-427Z"/></svg>